# xmcd
#
# Track frame offsets: 
#        150
#        18586
#        36886
#        46244
#        62523
#        102604
#        117145
#        156323
#        174895
#        195332
#        217887
#        237351
#        255165
#        302847
#        331965
#
# Disc length: 4703 seconds
#
# Revision: 0
# Processed by: cddbd v1.4PL0 Copyright (c) Steve Scherf et al.
# Submitted via: ExactAudioCopy v0.90b4
#
DISCID=bf125d0f
DTITLE=Van Morrison - GAMH 1983 JAH vol 2
DYEAR=1983
DGENRE=Celtic
TTITLE0=Where Are You My Love ?
TTITLE1=High Place
TTITLE2=Gloria > Into The Mystic > Inarticulate Speech Of The Heart # 
TTITLE2=2
TTITLE3=It's All In The Game
TTITLE4=Dweller On The Threshold
TTITLE5=Higher Than The World
TTITLE6=Rave On John Donne > Rave On Part Two
TTITLE7=Northern Muse (Solid Ground)
TTITLE8=Cleaning Windows
TTITLE9=Vanlose Stairway
TTITLE10=She Gives Me Religion
TTITLE11=Celtic Swing
TTITLE12=Summertime In England
TTITLE13=Danny Boy
TTITLE14=Tupelo Honey
EXTD=
EXTT0=
EXTT1=
EXTT2=
EXTT3=
EXTT4=
EXTT5=
EXTT6=
EXTT7=
EXTT8=
EXTT9=
EXTT10=
EXTT11=
EXTT12=
EXTT13=
EXTT14=
PLAYORDER=
